<svg width="70" height="70" fill="none" xmlns="http://www.w3.org/2000/svg"><path d="M35 16.8c-8.712 0-16.613 1.908-22.45 5.091C6.715 25.075 2.8 29.667 2.8 35s3.914 9.925 9.75 13.109C18.388 51.292 26.289 53.2 35 53.2s16.613-1.908 22.45-5.091C63.285 44.925 67.2 40.333 67.2 35s-3.914-9.925-9.75-13.109C51.612 18.708 43.71 16.8 35 16.8zm0 2.8c8.299 0 15.798 1.853 21.11 4.75 5.31 2.896 8.29 6.704 8.29 10.65 0 3.946-2.98 7.754-8.29 10.65C50.797 48.547 43.298 50.4 35 50.4s-15.799-1.853-21.11-4.75C8.58 42.754 5.6 38.946 5.6 35c0-3.946 2.98-7.753 8.29-10.65C19.202 21.453 26.702 19.6 35 19.6zM26.81 21c-.061 0-.11.036-.153.085-.014.015-.023.03-.035.049-.01.014-.022.023-.03.038v.02c-.093.177-.131.412-.131.412s-1.09 3.433-1.6 4.457c-.511 1.025-.882 1.99-5.152 2.456-3.79.481-5.78.785-5.78.785l-3.503.464s-.623.025-.623.257c0 .233.527.234.719.258.192.023 3.932.51 3.932.51s5.977.794 6.552.887c.358.057 1.111.16 1.799.374a4.596 4.596 0 01.648.26c.16.081.311.17.429.274.696.604 1.296 1.908 1.728 3.841.431 1.934.889 3.588.889 3.588s.018.144.066.29c.048.148.125.295.245.295.06 0 .105-.037.146-.09.015-.021.024-.052.038-.077.017-.032.036-.06.049-.096v-.01c.056-.161.08-.331.08-.331s1.176-4.543 1.465-5.335l.123-.35.05-.131c.037-.101.081-.207.13-.315.026-.057.059-.113.088-.172a3.815 3.815 0 01.303-.49c.075-.1.164-.197.258-.295.473-.497 1.185-.935 2.357-1.113 2.615-.396 7.486-.932 7.486-.932s2.158-.254 4.066-.391a25.896 25.896 0 01.62-.041 33.502 33.502 0 01.728-.033c.138-.004.27-.01.394-.01h.142c.158 0 .308.003.432.01 1.63.094 3.454.324 3.91.394.098.015.214.035.331.057.035.007.073.02.11.028a2.018 2.018 0 01.413.145c.093.046.18.107.265.177.032.027.067.049.098.08a1.327 1.327 0 01.295.438c.32.776.67 2.236.67 2.236s.112.448.288.448.287-.418.287-.418.53-1.771.721-2.22c.06-.14.142-.277.266-.4l.046-.046c.065-.059.138-.113.227-.164l.025-.014a2.26 2.26 0 01.41-.172 3.77 3.77 0 01.312-.088c.047-.01.093-.023.145-.033.169-.035.354-.067.568-.093a40.729 40.729 0 002.926-.48s.375-.013.582-.118h.009l.008-.006.014-.008c.065-.038.109-.085.109-.148 0-.06-.046-.107-.11-.145l-.03-.016a.958.958 0 00-.226-.071c-.021-.004-.037-.01-.058-.014-.018-.003-.04-.007-.057-.008h-.017a4.032 4.032 0 00-.273-.025l-3.262-.514-.074-.008c-.014-.001-.036-.005-.055-.008a2.867 2.867 0 01-.131-.025 3.18 3.18 0 01-.249-.057c-.03-.009-.06-.015-.09-.025a2.01 2.01 0 01-.798-.45 1.063 1.063 0 01-.25-.359c-.335-.839-.688-1.756-.688-1.756s-.03-.157-.104-.268v-.01c-.003-.005-.011-.004-.014-.009-.036-.049-.078-.084-.137-.084-.051 0-.096.033-.134.079l-.002.003v.005c-.1.13-.153.361-.153.361s-.383 1.29-.687 1.709c-.304.42-.67.837-2.286.993a46.684 46.684 0 00-1.785.205 85.017 85.017 0 01-.684.085l-.068.008a6.99 6.99 0 01-.566.04c-.64.016-1.969.017-3.024-.106l-7.884-.932-.098-.011-.055-.008-.202-.022-.145-.017-.26-.033c-.075-.01-.158-.018-.24-.03-.142-.018-.288-.039-.444-.06l-.114-.016c-.139-.02-.28-.04-.421-.063l-.164-.025c-.178-.028-.353-.055-.52-.085-.011 0-.022-.004-.033-.005-.155-.028-.3-.055-.435-.085l-.106-.024a4.547 4.547 0 01-.361-.093c-.863-.28-2.13-.329-3.104-3.295-.976-2.967-1.039-3.183-1.039-3.183s-.035-.195-.12-.353v-.019c-.011-.02-.028-.034-.041-.052-.011-.015-.02-.028-.033-.04-.045-.039-.096-.072-.159-.072zm16.853 12.6c-.114 0-.326.47-.454.878-.13.407-.471 1.613-.974 1.911-.502.297-1.345.471-2.852.613 0 0-2.283.17-2.83.423-.007.003-.015.004-.022.006-.084.036-.134.076-.131.115.003.04.05.08.126.12.024.011.06.022.09.033.064.025.13.05.219.074.008.002.01.005.019.008h.008c.73.192 2.107.326 2.404.36.253.03.964.108 1.577.2.16.024.307.049.443.074.038.007.075.012.11.02.131.026.25.055.328.081.455.157.763.282.943.766.178.484.618 1.92.618 1.92s.097.347.213.582v.014c.009.016.017.025.025.04.006.01.01.026.016.036.005.007.01.007.014.014.04.062.079.104.118.107l.005.005c.027 0 .054-.023.082-.055.009-.01.016-.023.025-.035l.014-.017a.72.72 0 00.043-.079c.006-.01.01-.016.014-.027v-.006c.117-.25.213-.626.213-.626s.44-1.797.766-2.124c.326-.328.373-.453 1.824-.673 1.122-.17 2.236-.357 3.188-.432v-.011c.262-.02.52-.037.755-.036.771.002 1.384.06 2.827.26 1.163.161 1.544.37 1.802.94.063.138.119.292.175.477.136.445.26.821.369 1.11v.002a2.934 2.934 0 00.134.304c.014.028.031.068.044.09.05.087.095.14.134.14.147 0 .18-.202.325-.632a12.773 12.773 0 01.222-.812c.039-.12.077-.22.114-.317a3.154 3.154 0 01.178-.389c.062-.108.126-.202.192-.276l.002-.005a1.35 1.35 0 01.214-.192c.02-.015.041-.032.063-.046.072-.05.148-.099.232-.148.518-.308 3.095-.582 3.095-.582s.212-.023.435-.063h.003l.022-.006c.03-.005.062-.012.093-.019l.082-.016c.036-.009.069-.02.1-.03l.061-.02a.525.525 0 00.08-.038c.01-.007.028-.013.038-.019.027-.024.043-.044.043-.068a.16.16 0 00-.04-.107c-.008-.008-.02-.015-.028-.022a.394.394 0 00-.112-.063l-.041-.016a1.757 1.757 0 00-.233-.057h-.008a8.174 8.174 0 00-.476-.074c-.714-.093-2.091-.4-2.966-.585-.877-.185-1.138-1.245-1.138-1.245s-.211-.646-.413-.937v-.006c-.018-.026-.036-.043-.054-.063-.01-.01-.018-.021-.028-.03-.03-.027-.06-.044-.087-.04-.048.002-.099.053-.153.13l-.011.011v.006c-.202.3-.44 1.003-.678 1.528-.307.676-1.282.828-1.8.905-.52.077-1.344.295-2.674.326-1.328.03-2.587-.2-2.587-.2-1.053-.126-2.025-.174-2.753-.487-.731-.313-1.103-1.348-1.299-1.974-.193-.628-.323-.924-.438-.924zm-8.575 7c-.03 0-.07.038-.11.096l-.003.002v.003c-.109.158-.24.481-.333.777-.128.407-.463 1.613-.955 1.911-.492.297-1.318.468-2.797.61 0 0-1.645.125-2.453.32h-.002a1.872 1.872 0 00-.257.082c-.017.007-.046.013-.06.019-.077.036-.123.074-.12.112 0 .04.041.076.109.112.049.027.128.052.205.077.028.01.046.021.076.03.004.001.007.003.011.003h.003c.7.198 2.097.336 2.392.371.248.03.942.105 1.54.197.157.024.3.052.435.077l.106.019c.13.027.245.055.32.082.446.157.747.282.922.768.173.486.604 1.928.604 1.928s.092.349.205.585v.014c.009.017.02.026.027.04l.028.047c.04.069.081.118.12.118.027 0 .056-.023.082-.055.009-.01.016-.023.025-.035a.707.707 0 00.055-.099l.013-.024v-.003c.114-.25.208-.632.208-.632s.429-1.8.746-2.13c.318-.329.367-.454 1.78-.672l1.291-.203c.14-.02.277-.043.416-.063.38-.056.737-.095 1.085-.13.383-.04.758-.075 1.086-.075 1.065 0 1.271.015 1.922.093.653.079 2.05.253 2.606.424.557.172.746.563.889.924.142.36.462 1.316.462 1.316s.08.393.27.393c.058 0 .102-.044.14-.095a.508.508 0 00.05-.082c.009-.02.017-.033.024-.052.074-.166.117-.34.131-.41.153-.451.5-1.425.716-1.617.287-.25.496-.486 1.909-.659 1.414-.173 2.255-.346 2.748-.377a3.98 3.98 0 00.465-.052l.016.003c.016-.003.023-.011.039-.014a.99.99 0 00.235-.076c.054-.031.09-.068.09-.112 0-.047-.026-.082-.068-.115-.013-.01-.035-.02-.052-.028a.797.797 0 00-.186-.065c-.018-.005-.022-.012-.041-.017h-.017a6.699 6.699 0 00-.527-.087c-.59-.079-2.15-.249-3.287-.44a16.814 16.814 0 01-.59-.11c-1.096-.234-1.16-1.096-1.319-1.52-.114-.305-.204-.736-.341-.954v-.009c-.002-.002-.005-.002-.006-.005-.05-.079-.108-.131-.175-.131-.057 0-.102.03-.142.068a.325.325 0 00-.041.047c-.01.014-.02.022-.03.038v.014c-.081.145-.124.342-.153.429-.048.141-.3 1.035-.49 1.331-.192.299-.337.627-1.083.769-.746.141-2.143.438-3.461.47-.3.007-.565.007-.815.003l-.15-.003a14.307 14.307 0 01-.69-.035c-.01 0-.016-.002-.024-.003-.474-.035-.914-.089-1.422-.15-1.032-.127-1.986-.174-2.702-.487-.715-.314-1.08-1.347-1.271-1.974-.136-.448-.236-.718-.326-.843v-.005c-.001-.003-.004-.003-.005-.006-.036-.042-.068-.068-.099-.068z" fill="#000000bd" fill-opacity=".3"/></svg>