<svg width="70" height="70" fill="none" xmlns="http://www.w3.org/2000/svg"><path d="M12.356 22.4h.244v15.065c0 1.966-1.366 3.132-3.5 3.132-2.148 0-3.451-1.534-3.451-3.186L5.6 35H0v2.465C0 40.292 1.005 46.2 9.1 46.2c8.096 0 9.1-6.275 9.1-8.85V22.4h-5.844zM27.3 42c-1.768 0-2.1-1.4-2.1-2.8H35c0-7-2.8-9.8-7.7-9.8s-7.7 2.8-7.7 8.138c0 5.862 2.544 8.662 7.73 8.662 4.547.048 7.67-3.336 7.67-5.6h-5.6s-.339 1.4-2.1 1.4zm0-8.4c1.44 0 2.1 1.4 2.1 2.8h-4.2c0-1.4.675-2.8 2.1-2.8zM44.1 42c-1.768 0-2.1-1.4-2.1-2.8h9.8c0-7-2.8-9.8-7.7-9.8s-7.7 2.8-7.7 8.138c0 5.862 2.544 8.662 7.73 8.662 4.547.048 7.67-3.336 7.67-5.6h-5.6s-.339 1.4-2.1 1.4zm0-8.4c1.44 0 2.1 1.4 2.1 2.8H42c0-1.4.675-2.8 2.1-2.8zm19.172-4.768c-2.638 0-3.628 1.225-3.98 1.653-.408.501-.309.78-.492 1.18V29.4h-5.6l.1 21h5.5v-6.559c.214.288.161.434.552.743.61.47 1.65 1.283 3.98 1.283 4.225 0 6.667-3.675 6.667-8.698.001-6.5-4.098-8.337-6.727-8.337zm-1.59 13.288c-2.571 0-2.942-1.645-2.882-4.77.067-3.127.988-4.407 2.635-4.407 2.692 0 2.965 2.078 2.965 4.226 0 2.143-.153 4.951-2.719 4.951z" fill="#000000bd" fill-opacity=".3"/></svg>