<svg width="68" height="68" fill="none" xmlns="http://www.w3.org/2000/svg"><path d="M34 .4C15.46.4.4 15.461.4 34 .4 52.54 15.46 67.6 34 67.6S67.6 52.54 67.6 34C67.6 15.461 52.54.4 34 .4zm0 2.8c17.03 0 30.8 13.77 30.8 30.8 0 17.024-13.77 30.8-30.8 30.8C16.976 64.8 3.2 51.024 3.2 34 3.2 16.97 16.976 3.2 34 3.2zm-2.144 1.006l-2.931.35-.306 8.838 2.275-.35.219-5.906 2.056 5.906h1.662l2.056-5.906.22 5.906 2.274.35-.306-8.838-2.931-.35L34 10.42l-2.144-6.213zm21.438 6.782l-5.294 7 1.619 1.487 5.862-2.669-3.894 5.119 1.138 1.925 7.962-3.675-1.137-1.925-4.594 2.1 3.281-4.288-1.443-1.793-4.9 2.275 3.062-4.025-1.662-1.531zm-38.981 1.05a2.146 2.146 0 00-1.532.787c-.136.17-.257.356-.394.525-.71.891-1.432 1.777-2.143 2.669-.613.765-1.225 1.51-1.838 2.275-.038.049-.093.126-.131.175-.005.005.082.038.087.043.241.192.51.378.744.57.897.716 1.772 1.427 2.669 2.143.886.711 1.777 1.433 2.669 2.144.224.18.475.388.7.569.01.01.033.054.043.043.044-.054.088-.12.132-.175.607-.76 1.23-1.515 1.837-2.275.733-.913 1.455-1.843 2.188-2.756.377-.47.782-.897.962-1.487a2.62 2.62 0 00.088-.963 2.405 2.405 0 00-1.4-1.881c-.777-.356-1.68-.224-2.363.262-.054.039-.12.088-.175.132.115-.389.186-.782.088-1.182-.093-.388-.328-.727-.613-1.006a2.106 2.106 0 00-1.618-.613zm-.176 2.23c.301-.021.624.077.832.307.224.246.29.596.219.919-.083.284-.301.476-.482.7-.36.454-.733.902-1.093 1.356-.367.454-.733.902-1.094 1.356-.372-.295-.722-.58-1.094-.875-.142-.115-.295-.235-.438-.35-.005-.005.165-.164.175-.175.69-.858 1.368-1.722 2.057-2.581.18-.224.333-.498.612-.613.093-.038.208-.038.306-.043zM34 14.4c-10.806 0-19.6 8.794-19.6 19.6 0 10.806 8.794 19.6 19.6 19.6 10.806 0 19.6-8.794 19.6-19.6 0-10.806-8.794-19.6-19.6-19.6zm-16.8 1.838a.966.966 0 01.919.568c.147.35.104.755-.131 1.05-.236.296-.47.585-.7.875-.64.804-1.286 1.603-1.925 2.406-.033-.027-.099-.016-.132-.043-.175-.142-.35-.296-.525-.438-.3-.24-.574-.503-.875-.743l1.707-2.144.875-1.094c.202-.252.448-.427.787-.438zM34 17.2c9.297 0 16.8 7.503 16.8 16.8H34v16.8c-9.297 0-16.8-7.503-16.8-16.8H34V17.2z" fill="#000000bd" fill-opacity=".3"/></svg>