<svg width="70" height="70" fill="none" xmlns="http://www.w3.org/2000/svg"><path fill-rule="evenodd" clip-rule="evenodd" d="M60.971 43.22c-.454 3.314-.771 7.65-3.133 10.22-.832.908-7.274 4.687-6.968 1.773 1.182-9.1 1.832-18.228 2.396-27.388.164-3.845.382-7.694.432-11.54.06-.65-.345-2.252.667-2.296 1.914.563 4.014 1.127 5.277 2.822 2.385 3.21 2.106 8.028 2.15 11.829.06 4.85-.165 9.773-.82 14.58zM48.35 13.912c-1.312 4.806-2.822 11.178-4.172 16.001-1.078 3.861-2.314 8.838-6.99 9.33-.7.07-1.438.136-2.187.147-.75-.01-1.487-.076-2.188-.147-4.675-.492-5.911-5.469-6.989-9.33-1.35-4.823-2.86-11.195-4.172-16.002-.224-.825.115-.64 1.81-.869 3.04-.41 7.574-.476 11.539-.438 3.96-.038 8.498.028 11.54.438 1.694.23 2.033.044 1.81.87zm-4.993 43.099c-.377.065-1.646.06-3.046.093a218.61 218.61 0 01-5.31.049c-1.766 0-3.538-.006-5.31-.05-1.4-.032-2.669-.027-3.046-.092-.378-.066-.766-.093-.651-.514.115-.427 1.816-5.95 1.816-5.95 1.115-3.675 1.192-3.916 4.057-4.485A17.56 17.56 0 0135 45.746c1.1.011 2.182.131 3.134.317 2.865.569 2.947.81 4.063 4.485 0 0 1.7 5.523 1.81 5.95.115.42-.273.448-.65.514zM12.162 53.44c-2.367-2.57-2.68-6.907-3.133-10.222-.656-4.806-.88-9.728-.826-14.58.044-3.8-.23-8.618 2.155-11.828 1.263-1.695 3.363-2.259 5.277-2.822 1.012.044.607 1.646.667 2.297.05 3.845.268 7.694.432 11.539.558 9.16 1.214 18.287 2.396 27.387.306 2.915-6.136-.864-6.967-1.771zm53.529-28.903c-.214-3.587-.739-7.503-3.375-10.16-2.406-2.418-5.879-3.096-9.105-3.534C47.13 10.03 41.136 9.806 35 9.8c-6.136.005-12.13.23-18.21 1.044-3.227.438-6.7 1.116-9.106 3.539-2.636 2.652-3.161 6.568-3.375 10.155-.246 4.157-.032 8.307.22 12.458.256 4.085.71 8.209 1.7 12.19.46 1.843 1.083 3.697 2.144 5.283 1.022 1.52 2.493 2.603 4.14 3.358 3.5 1.613 7.535 1.75 11.314 1.985 3.708.23 7.438.372 11.173.388 3.735-.016 7.465-.159 11.173-.388 3.779-.235 7.814-.378 11.314-1.985 1.647-.76 3.118-1.838 4.14-3.364 1.061-1.586 1.685-3.44 2.144-5.282.99-3.976 1.444-8.1 1.7-12.19.252-4.146.466-8.296.22-12.453z" fill="#000000bd" fill-opacity=".3"/></svg>