<svg width="70" height="70" fill="none" xmlns="http://www.w3.org/2000/svg"><path d="M35 2.8C17.244 2.8 2.8 17.245 2.8 35c0 17.755 14.444 32.2 32.2 32.2S67.2 52.755 67.2 35C67.2 17.245 52.756 2.8 35 2.8zm8.222 6.916L35 28 26.778 9.716A26.454 26.454 0 0135 8.4c2.87 0 5.63.47 8.222 1.316zm-21.885 2.503L31.357 33.6h7.284l10.02-21.38a26.77 26.77 0 017.653 6.933L43.894 46.2l-5.17-9.8h-7.448l-5.17 9.8-12.421-27.047a26.79 26.79 0 017.652-6.934zM8.4 35c0-3.287.627-6.422 1.722-9.331l15.28 34.111.029.011C15.484 55.937 8.4 46.291 8.4 35zm17.059 24.801L35 42l9.541 17.801A26.42 26.42 0 0135 61.6a26.42 26.42 0 01-9.541-1.799zm19.109-.01l.029-.011 15.281-34.111C60.973 28.579 61.6 31.713 61.6 35c0 11.291-7.084 20.937-17.032 24.791z" fill="#000000bd" fill-opacity=".3"/></svg>