<svg width="49" height="48" viewBox="0 0 49 48" fill="none" xmlns="http://www.w3.org/2000/svg">
<mask id="mask0_309_17611" style="mask-type:alpha" maskUnits="userSpaceOnUse" x="0" y="0" width="49" height="48">
<rect x="0.666992" width="48" height="48" fill="#D9D9D9"/>
</mask>
<g mask="url(#mask0_309_17611)">
<path d="M20.017 27.4001L21.767 21.7001L17.167 18.0001H22.867L24.667 12.4001L26.467 18.0001H32.167L27.517 21.7001L29.267 27.4001L24.667 23.8501L20.017 27.4001ZM12.667 46.0001V30.5501C11.4003 29.1501 10.417 27.5501 9.71699 25.7501C9.01699 23.9501 8.66699 22.0334 8.66699 20.0001C8.66699 15.5334 10.217 11.7501 13.317 8.65006C16.417 5.55006 20.2003 4.00006 24.667 4.00006C29.1337 4.00006 32.917 5.55006 36.017 8.65006C39.117 11.7501 40.667 15.5334 40.667 20.0001C40.667 22.0334 40.317 23.9501 39.617 25.7501C38.917 27.5501 37.9337 29.1501 36.667 30.5501V46.0001L24.667 42.0001L12.667 46.0001ZM24.667 32.0001C28.0003 32.0001 30.8337 30.8334 33.167 28.5001C35.5003 26.1667 36.667 23.3334 36.667 20.0001C36.667 16.6667 35.5003 13.8334 33.167 11.5001C30.8337 9.16673 28.0003 8.00006 24.667 8.00006C21.3337 8.00006 18.5003 9.16673 16.167 11.5001C13.8337 13.8334 12.667 16.6667 12.667 20.0001C12.667 23.3334 13.8337 26.1667 16.167 28.5001C18.5003 30.8334 21.3337 32.0001 24.667 32.0001Z" fill="url(#paint0_linear_309_17611)"/>
</g>
<defs>
<linearGradient id="paint0_linear_309_17611" x1="24.667" y1="4.00006" x2="24.667" y2="46.0001" gradientUnits="userSpaceOnUse">
<stop stop-color="#F47D32"/>
<stop offset="1" stop-color="#FF4D00"/>
</linearGradient>
</defs>
</svg>
