<?xml version="1.0" encoding="UTF-8"?>
<svg id="_Слой_1" data-name="Слой 1" xmlns="http://www.w3.org/2000/svg" xmlns:xlink="http://www.w3.org/1999/xlink" viewBox="0 0 42.43 37.95">
  <defs>
    <style>
      .cls-1 {
        fill: url(#_Безымянный_градиент);
      }

      .cls-2 {
        fill: url(#_Безымянный_градиент-2);
      }

      .cls-3 {
        fill: url(#_Безымянный_градиент-5);
      }

      .cls-4 {
        fill: url(#_Безымянный_градиент-3);
      }

      .cls-5 {
        fill: url(#_Безымянный_градиент-4);
      }
    </style>
    <linearGradient id="_Безымянный_градиент" data-name="Безымянный градиент" x1="0" y1="29.15" x2="42.43" y2="29.15" gradientUnits="userSpaceOnUse">
      <stop offset="0" stop-color="#f47d32"/>
      <stop offset="1" stop-color="#ff4d00"/>
    </linearGradient>
    <linearGradient id="_Безымянный_градиент-2" data-name="Безымянный градиент" x1="14.51" y1="15.22" x2="28.62" y2="15.22" xlink:href="#_Безымянный_градиент"/>
    <linearGradient id="_Безымянный_градиент-3" data-name="Безымянный градиент" x1="21.28" y1="13.88" x2="23.41" y2="13.88" xlink:href="#_Безымянный_градиент"/>
    <linearGradient id="_Безымянный_градиент-4" data-name="Безымянный градиент" x1="29.86" y1="3.72" x2="31.17" y2="3.72" xlink:href="#_Безымянный_градиент"/>
    <linearGradient id="_Безымянный_градиент-5" data-name="Безымянный градиент" x1="25.16" y1="4.92" x2="35.01" y2="4.92" xlink:href="#_Безымянный_градиент"/>
  </defs>
  <path class="cls-1" d="M0,24.28c1.29-.59,2.56-1.18,3.83-1.74,1.33-.58,2.66-1.16,4.01-1.69,.98-.39,2.01-.56,3.07-.47,.95,.08,1.81,.43,2.63,.9,1.66,.94,3.19,2.09,4.72,3.22,.72,.53,1.53,.85,2.35,1.17,.95,.37,1.94,.63,2.96,.74,.4,.04,.82,.03,1.22,.04,.97,.04,1.93,.06,2.89,.13,.39,.03,.78,.15,1.16,.28,.32,.11,.52,.36,.61,.7,.19,.75-.04,1.28-.72,1.66-.49,.27-1.02,.43-1.57,.46-1.19,.05-2.39,.06-3.58,.06-1.32,0-2.64,0-3.96,0-1.1,0-2.17-.24-3.21-.55-.73-.22-1.44-.48-2.16-.72-.06-.02-.13-.04-.23-.02,.31,.27,.61,.56,.92,.82,1,.83,2.07,1.54,3.33,1.89,.43,.12,.89,.21,1.34,.21,2.39,.02,4.78,.03,7.17,0,1.17-.02,2.29-.32,3.24-1.04,.91-.69,1.23-1.63,1.1-2.74-.09-.81-.4-1.5-1.1-1.97-.5-.33-1.06-.5-1.64-.61-1.21-.22-2.44-.19-3.66-.21-.37,0-.73-.04-1.1-.06,0-.03-.01-.05-.02-.08,.21-.12,.41-.23,.62-.35,1.05-.62,2.09-1.25,3.14-1.86,.71-.41,1.45-.79,2.28-.92,.77-.12,1.41,.12,1.95,.65,.17,.16,.32,.34,.49,.53,.49-.48,1.06-.82,1.73-.99,.61-.15,1.23-.24,1.86-.13,.88,.15,1.38,.74,1.37,1.63,0,.07,0,.14,0,.24,.13-.07,.25-.13,.37-.19,.69-.38,1.41-.69,2.2-.8,.96-.14,1.84,.03,2.46,.87,.52,.7,.46,1.47-.16,2.24-.45,.57-1.01,1.01-1.61,1.41-2.25,1.51-4.49,3.02-6.76,4.5-2.68,1.75-5.38,3.47-8.08,5.18-.59,.37-1.21,.7-1.85,.96-1.14,.46-2.31,.35-3.46-.02-1.17-.37-2.22-.99-3.3-1.54-1.64-.83-3.26-1.69-4.89-2.53-.54-.28-1.09-.56-1.64-.83-1.02-.51-2.01-.44-2.97,.19-.77,.5-1.55,.99-2.32,1.48-.11,.07-.23,.14-.36,.22-1.56-3.44-3.11-6.87-4.68-10.33Z"/>
  <g>
    <path class="cls-2" d="M21.48,8.17c-3.82,.04-6.93,3.12-6.97,6.96-.04,3.96,3.09,7.12,7.03,7.14,3.89,.02,7.07-3.11,7.08-7.03,.01-3.88-3.12-7.11-7.14-7.08Zm.68,7.81h-.86v.63h2.27v1.01h-2.27v1.14h-1.72v-1.14h-1v-1.01h1v-.63h-1v-1.03h1v-3.26h2.7c1,0,1.72,.18,2.17,.54,.45,.36,.68,.89,.68,1.59,0,1.43-1,2.15-2.99,2.15Z"/>
    <path class="cls-4" d="M22.11,12.81h-.83v2.14h.83c.46,0,.8-.09,1-.28,.2-.18,.3-.46,.3-.81s-.1-.62-.3-.79c-.2-.17-.53-.26-1-.26Z"/>
  </g>
  <g>
    <path class="cls-5" d="M30.37,3.06h-.51v1.31h.51c.29,0,.49-.06,.61-.17,.12-.11,.19-.28,.19-.5s-.06-.38-.18-.49-.33-.16-.62-.16Z"/>
    <path class="cls-3" d="M34.41,2.57c-1.27-2.24-3.83-3.14-6.22-2.19-2.11,.83-3.4,3.25-2.94,5.46,.04,.2,.13,.27,.29,.34,1.8,.75,3.27,1.91,4.41,3.49,.1,.14,.21,.18,.38,.18,2.56-.05,4.73-2.34,4.68-5.19,0-.58-.19-1.37-.59-2.09Zm-4,2.44h-.53v.38h1.39v.62h-1.39v.7h-1.05v-.7h-.61v-.62h.61v-.38h-.61v-.63h.61V2.38h1.66c.61,0,1.06,.11,1.34,.33,.28,.22,.42,.55,.42,.98,0,.88-.61,1.32-1.83,1.32Z"/>
  </g>
</svg>