<svg width="48" height="48" viewBox="0 0 48 48" fill="none" xmlns="http://www.w3.org/2000/svg">
<mask id="mask0_309_17595" style="mask-type:alpha" maskUnits="userSpaceOnUse" x="0" y="0" width="48" height="48">
<rect width="48" height="48" fill="#D9D9D9"/>
</mask>
<g mask="url(#mask0_309_17595)">
<path d="M22 44V38H8V34H40V38H26V44H22ZM18 23C18.5667 23 19.042 22.808 19.426 22.424C19.8087 22.0413 20 21.5667 20 21C20 20.4333 19.8087 19.958 19.426 19.574C19.042 19.1913 18.5667 19 18 19C17.4333 19 16.9587 19.1913 16.576 19.574C16.192 19.958 16 20.4333 16 21C16 21.5667 16.192 22.0413 16.576 22.424C16.9587 22.808 17.4333 23 18 23ZM30 23C30.5667 23 31.042 22.808 31.426 22.424C31.8087 22.0413 32 21.5667 32 21C32 20.4333 31.8087 19.958 31.426 19.574C31.042 19.1913 30.5667 19 30 19C29.4333 19 28.9587 19.1913 28.576 19.574C28.192 19.958 28 20.4333 28 21C28 21.5667 28.192 22.0413 28.576 22.424C28.9587 22.808 29.4333 23 30 23ZM10 17.2L13.3 7.6C13.4667 7.13333 13.7413 6.75 14.124 6.45C14.508 6.15 14.9333 6 15.4 6H32.6C33.0667 6 33.492 6.15 33.876 6.45C34.2587 6.75 34.5333 7.13333 34.7 7.6L38 17.2V30.4C38 30.8667 37.85 31.25 37.55 31.55C37.25 31.85 36.8667 32 36.4 32H35.6C35.1333 32 34.75 31.85 34.45 31.55C34.15 31.25 34 30.8667 34 30.4V28H14V30.4C14 30.8667 13.85 31.25 13.55 31.55C13.25 31.85 12.8667 32 12.4 32H11.6C11.1333 32 10.75 31.85 10.45 31.55C10.15 31.25 10 30.8667 10 30.4V17.2ZM15.3 14H32.7L31.3 10H16.7L15.3 14Z" fill="url(#paint0_linear_309_17595)"/>
</g>
<defs>
<linearGradient id="paint0_linear_309_17595" x1="24" y1="6" x2="24" y2="44" gradientUnits="userSpaceOnUse">
<stop stop-color="#F47D32"/>
<stop offset="1" stop-color="#FF4D00"/>
</linearGradient>
</defs>
</svg>
