<svg width="12" height="14" viewBox="0 0 12 14" fill="none" xmlns="http://www.w3.org/2000/svg">
<path fill-rule="evenodd" clip-rule="evenodd" d="M1.16675 6.33333C1.16675 3.66396 3.3307 1.5 6.00008 1.5C8.66946 1.5 10.8334 3.66396 10.8334 6.33333C10.8334 7.17714 10.4044 8.23668 9.52359 9.35776C8.69686 10.41 7.50181 11.477 6.00008 12.4139C4.49834 11.477 3.3033 10.41 2.47657 9.35776C1.59573 8.23668 1.16675 7.17714 1.16675 6.33333ZM6.00008 0.5C2.77842 0.5 0.166748 3.11167 0.166748 6.33333C0.166748 7.48952 0.737769 8.76332 1.69026 9.97558C2.65019 11.1973 4.03239 12.4025 5.74283 13.4287L6.00008 13.5831L6.25733 13.4287C7.96778 12.4025 9.34997 11.1973 10.3099 9.97558C11.2624 8.76332 11.8334 7.48952 11.8334 6.33333C11.8334 3.11167 9.22174 0.5 6.00008 0.5ZM7.66675 5.66667C7.66675 6.58714 6.92056 7.33333 6.00008 7.33333C5.07961 7.33333 4.33342 6.58714 4.33342 5.66667C4.33342 4.74619 5.07961 4 6.00008 4C6.92056 4 7.66675 4.74619 7.66675 5.66667ZM8.66675 5.66667C8.66675 7.13943 7.47284 8.33333 6.00008 8.33333C4.52732 8.33333 3.33341 7.13943 3.33341 5.66667C3.33341 4.19391 4.52732 3 6.00008 3C7.47284 3 8.66675 4.19391 8.66675 5.66667Z" fill="#F47D32"/>
</svg>
