<svg xmlns="http://www.w3.org/2000/svg" xml:space="preserve" width="774px" height="80px" version="1.1" style="shape-rendering:geometricPrecision; text-rendering:geometricPrecision; image-rendering:optimizeQuality; fill: #ffffff; fill-rule:evenodd; clip-rule:evenodd"
viewBox="0 0 323.93 33.38">
 <g id="Слой_x0020_1">
  <metadata id="CorelCorpID_0Corel-Layer"/>
  <g id="_1795578781104">
   <polygon class="fil0" points="71.26,10.75 71.26,32.69 59.24,32.69 59.24,10.75 47.86,10.75 47.86,0.69 82.6,0.69 82.6,10.75 71.26,10.75 "/>
   <polygon class="fil0" points="32.04,0.69 44.06,0.69 44.06,32.69 32.04,32.69 "/>
   <polygon class="fil0" points="11.51,22.49 11.51,32.69 0,32.69 0,0.69 27.78,0.69 27.78,10.01 11.51,10.01 11.51,13.17 26.46,13.17 26.46,22.49 11.51,22.49 "/>
   <path class="fil0" d="M172.41 10.01l0 6.04 5.21 0c1.71,0 2.94,-0.24 3.71,-0.73 0.76,-0.49 1.14,-1.25 1.14,-2.29 0,-1.13 -0.38,-1.91 -1.14,-2.36 -0.77,-0.44 -2.12,-0.66 -4.07,-0.66l-4.85 0 0 0zm-11.71 22.68l0 -32 18.11 0c5.58,0 9.63,0.96 12.16,2.9 2.53,1.93 3.8,4.91 3.8,8.94 0,4.78 -2.04,8.13 -6.13,10.06l8.37 10.1 -13.12 0 -6.36 -8.23 -4.8 0 0 8.23 -12.03 0 0 0z"/>
   <polygon class="fil0" points="323.93,32.69 294.76,32.69 294.76,0.69 323.93,0.69 323.93,9.97 306.79,9.97 306.79,12.48 321.83,12.48 321.83,20.89 306.79,20.89 306.79,23.41 323.93,23.41 "/>
   <path class="fil0" d="M290.1 21.63l0 10.1c-3.29,1.1 -7.33,1.65 -12.12,1.65 -7.46,0 -12.91,-1.39 -16.32,-4.16 -3.42,-2.78 -5.12,-6.82 -5.12,-12.12 0,-5.61 1.74,-9.86 5.23,-12.76 3.49,-2.89 9.18,-4.34 17.08,-4.34 2.96,0 6.69,0.47 11.2,1.42l0 10.01c-3.2,-0.92 -6.29,-1.37 -9.28,-1.37 -4.14,0 -7.09,0.45 -8.85,1.37 -1.75,0.91 -2.63,2.67 -2.63,5.26 0,2.44 0.89,4.15 2.65,5.14 1.77,0.99 4.72,1.49 8.83,1.49 3.02,0 6.13,-0.57 9.33,-1.69l0 0z"/>
   <polygon class="fil0" points="239.85,0.69 251.87,0.69 251.87,32.69 239.85,32.69 "/>
   <polygon class="fil0" points="236.83,0.69 224.49,32.69 208.39,32.69 196.09,0.69 209.17,0.69 216.8,22.95 224.58,0.69 236.83,0.69 "/>
   <polygon class="fil0" points="155.9,23.41 155.9,32.69 126.19,32.69 126.19,0.69 155.9,0.69 155.9,9.97 138.21,9.97 138.21,12.48 153.25,12.48 153.25,20.89 138.21,20.89 138.21,23.41 155.9,23.41 "/>
   <path class="fil0" d="M91.57 31.59l0 -9.14c1.04,0.49 2.66,0.93 4.85,1.32 2.19,0.4 4.51,0.6 6.95,0.6 2.04,0 3.47,-0.09 4.27,-0.27 0.81,-0.19 1.22,-0.54 1.22,-1.06 0,-0.15 -0.03,-0.28 -0.07,-0.39 -0.05,-0.1 -0.15,-0.2 -0.32,-0.29 -0.17,-0.09 -0.34,-0.16 -0.5,-0.21 -0.17,-0.04 -0.43,-0.11 -0.78,-0.18 -0.35,-0.08 -0.7,-0.15 -1.05,-0.21 -0.35,-0.06 -0.83,-0.15 -1.42,-0.27 -0.59,-0.12 -1.17,-0.24 -1.71,-0.37l-1.56 -0.32c-3.75,-0.73 -6.42,-1.99 -8.02,-3.79 -1.6,-1.8 -2.4,-3.89 -2.4,-6.26 0,-3.51 1.37,-6.18 4.11,-8.01 2.74,-1.83 6.72,-2.74 11.93,-2.74 5.25,0 9.47,0.5 12.67,1.51l0 8.96c-3.72,-0.85 -7.54,-1.28 -11.48,-1.28 -1.86,0 -3.17,0.09 -3.95,0.27 -0.78,0.19 -1.17,0.51 -1.17,0.96 0,0.46 0.3,0.8 0.89,1.01 0.6,0.21 1.69,0.45 3.3,0.71 1.6,0.26 2.94,0.52 4.04,0.8l1.69 0.41c1.83,0.43 3.36,0.98 4.6,1.67 1.23,0.69 2.16,1.46 2.79,2.33 0.62,0.87 1.06,1.72 1.3,2.54 0.24,0.82 0.37,1.74 0.37,2.74 0,3.51 -1.5,6.18 -4.51,8 -3,1.83 -7.23,2.75 -12.69,2.75 -5.33,0 -9.78,-0.6 -13.35,-1.79l0 0z"/>
  </g>
 </g>
</svg>
