<svg width="40" height="40" fill="none" xmlns="http://www.w3.org/2000/svg"><circle cx="20" cy="20" r="19" stroke="#FE5220" stroke-width="2"/><g clip-path="url(#clip0_41_41)"><path d="M26.737 22.535a9.148 9.148 0 01-2.87-.457c-.447-.154-.955-.035-1.249.265l-1.816 1.372c-2.084-1.113-3.418-2.446-4.515-4.515l1.334-1.773c.336-.337.457-.828.313-1.289a9.145 9.145 0 01-.46-2.875c0-.696-.567-1.263-1.263-1.263h-2.948c-.696 0-1.263.567-1.263 1.263C12 21.39 18.612 28 26.737 28c.697 0 1.263-.567 1.263-1.263v-2.94c0-.695-.567-1.262-1.263-1.262z" fill="#FE5220"/></g><defs><clipPath id="clip0_41_41"><path fill="#fff" transform="translate(12 12)" d="M0 0h16v16H0z"/></clipPath></defs></svg>