<svg width="24" height="24" viewBox="0 0 24 24" fill="#F47D32" xmlns="http://www.w3.org/2000/svg">
<path d="M11.1232 20.3255L11.7567 19.5517L11.1232 20.3255ZM12.877 20.3255L13.5105 21.0992L12.877 20.3255ZM11.7288 20.7135L11.9999 19.7509H11.9999L11.7288 20.7135ZM12.271 20.7135L12.542 21.6761L12.271 20.7135ZM12 10C11.4477 10 11 9.55228 11 9H9C9 10.6569 10.3431 12 12 12V10ZM11 9C11 8.44772 11.4477 8 12 8V6C10.3431 6 9 7.34315 9 9H11ZM12 8C12.5523 8 13 8.44772 13 9H15C15 7.34315 13.6569 6 12 6V8ZM13 9C13 9.55228 12.5523 10 12 10V12C13.6569 12 15 10.6569 15 9H13ZM11.7567 19.5517C10.8543 18.8128 9.39515 17.4879 8.1689 15.7829C6.9376 14.071 6 12.0586 6 9.9231H4C4 12.6394 5.18463 15.059 6.54525 16.9508C7.91092 18.8495 9.5134 20.2998 10.4897 21.0992L11.7567 19.5517ZM6 9.9231C6 8.35578 6.62943 6.85037 7.75344 5.73871L6.34706 4.31671C4.84557 5.8017 4 7.81818 4 9.9231H6ZM7.75344 5.73871C8.87782 4.62669 10.4052 4 12 4V2C9.88186 2 7.84819 2.83208 6.34706 4.31671L7.75344 5.73871ZM12 4C13.5949 4 15.1222 4.62669 16.2466 5.73872L17.6529 4.31672C16.1518 2.8321 14.1182 2 12 2V4ZM16.2466 5.73872C17.3706 6.85038 18 8.35574 18 9.92306H20C20 7.81816 19.1544 5.80172 17.6529 4.31672L16.2466 5.73872ZM18 9.92306C18 12.0585 17.0624 14.071 15.8311 15.7829C14.6049 17.4879 13.1459 18.8128 12.2434 19.5517L13.5105 21.0992C14.4868 20.2998 16.0892 18.8495 17.4548 16.9507C18.8154 15.059 20 12.6394 20 9.92306H18ZM10.4897 21.0992C10.7162 21.2847 11.017 21.5519 11.4578 21.6761L11.9999 19.7509C12.0053 19.7524 12.0139 19.7556 12.0219 19.7594C12.0286 19.7626 12.0261 19.7622 12.0103 19.7516C11.993 19.7399 11.9662 19.7205 11.9221 19.6857C11.8774 19.6505 11.8263 19.6087 11.7567 19.5517L10.4897 21.0992ZM12.2434 19.5517C12.1739 19.6086 12.1228 19.6504 12.0781 19.6856C12.0341 19.7203 12.0073 19.7397 11.99 19.7514C11.9742 19.762 11.9716 19.7625 11.9782 19.7593C11.9861 19.7555 11.9946 19.7524 12 19.7509L12.542 21.6761C12.9827 21.552 13.2833 21.2852 13.5105 21.0992L12.2434 19.5517ZM11.4578 21.6761C11.7913 21.7699 12.2086 21.7699 12.542 21.6761L12 19.7509C12.0109 19.7479 12.0181 19.7464 12.0212 19.7458C12.0245 19.7451 12.0253 19.7451 12.0236 19.7453C12.0219 19.7455 12.0188 19.7458 12.0144 19.7461C12.0101 19.7463 12.0052 19.7465 11.9999 19.7465C11.9947 19.7465 11.9898 19.7463 11.9854 19.7461C11.981 19.7458 11.9779 19.7455 11.9763 19.7453C11.9746 19.7451 11.9754 19.7451 11.9786 19.7458C11.9817 19.7464 11.989 19.7479 11.9999 19.7509L11.4578 21.6761Z" fill="#F47D32"/>
</svg>
