<svg width="40" height="40" viewBox="0 0 40 40" fill="none" xmlns="http://www.w3.org/2000/svg">
<path d="M20 40C31.0457 40 40 31.0457 40 20C40 8.95431 31.0457 0 20 0C8.95431 0 0 8.95431 0 20C0 31.0457 8.95431 40 20 40Z" fill="url(#paint0_linear_569_42044)"/>
<path d="M16.3327 29.1663C15.6848 29.1663 15.7948 28.9217 15.5713 28.3047L13.666 22.0339L28.3327 13.333" fill="#C8DAEA"/>
<path d="M16.334 29.1667C16.834 29.1667 17.0549 28.938 17.334 28.6667L20.0007 26.0737L16.6743 24.0679" fill="#A9C9DD"/>
<path d="M16.6725 24.0686L24.7325 30.0234C25.6524 30.5309 26.3161 30.2681 26.5452 29.1695L29.8261 13.709C30.162 12.3623 29.3128 11.7515 28.4328 12.1509L9.16782 19.5794C7.8528 20.1069 7.86046 20.8406 8.92812 21.1674L13.872 22.7105L25.3174 15.4897C25.8578 15.1621 26.3537 15.3382 25.9466 15.6994" fill="url(#paint1_linear_569_42044)"/>
<defs>
<linearGradient id="paint0_linear_569_42044" x1="26.668" y1="6.668" x2="16.668" y2="30" gradientUnits="userSpaceOnUse">
<stop stop-color="#37AEE2"/>
<stop offset="1" stop-color="#1E96C8"/>
</linearGradient>
<linearGradient id="paint1_linear_569_42044" x1="22.5" y1="20.0001" x2="25.6298" y2="27.1222" gradientUnits="userSpaceOnUse">
<stop stop-color="#EFF7FC"/>
<stop offset="1" stop-color="white"/>
</linearGradient>
</defs>
</svg>
