<svg width="40" height="40" viewBox="0 0 40 40" fill="none" xmlns="http://www.w3.org/2000/svg">
<path d="M20 40C31.0457 40 40 31.0457 40 20C40 8.95431 31.0457 0 20 0C8.95431 0 0 8.95431 0 20C0 31.0457 8.95431 40 20 40Z" fill="#6F3FAA"/>
<path d="M30.5781 14.9921L30.5703 14.9688C30.0391 12.8047 27.625 10.4922 25.414 10.0078L25.3907 10C21.8126 9.32031 18.1797 9.32031 14.6093 10L14.5859 10.0078C12.375 10.4922 9.96875 12.8047 9.42968 14.9688L9.42187 14.9921C8.75781 18.0079 8.75781 21.0703 9.42187 24.086L9.42968 24.1093C9.94531 26.1797 12.1719 28.3907 14.3047 29V31.414C14.3047 32.2891 15.3672 32.7188 15.9765 32.086L18.4219 29.5469C18.9531 29.5781 19.4844 29.5937 20.0156 29.5937C21.8203 29.5937 23.6172 29.4219 25.4063 29.086L25.4297 29.0781C27.6407 28.5937 30.0547 26.2812 30.5859 24.1172L30.5938 24.0937C31.2422 21.0703 31.2421 18.0079 30.5781 14.9921ZM28.6484 23.6484C28.2891 25.0547 26.4609 26.8125 25.0077 27.1328C23.1016 27.4921 21.1875 27.6484 19.2735 27.5937C19.2344 27.5937 19.1953 27.6093 19.1719 27.6328C18.8984 27.914 17.3907 29.4609 17.3907 29.4609L15.4921 31.4063C15.3516 31.5547 15.1093 31.4531 15.1093 31.25V27.2579C15.1093 27.1953 15.0625 27.1328 15 27.1251C13.5468 26.8047 11.7187 25.0469 11.3594 23.6407C10.7656 20.914 10.7656 18.1484 11.3594 15.4219C11.7187 14.0156 13.5468 12.2578 15 11.9375C18.3203 11.3047 21.6953 11.3047 25.0156 11.9375C26.4688 12.2578 28.2968 14.0156 28.6563 15.4219C29.2422 18.1563 29.2421 20.9219 28.6484 23.6484Z" fill="white"/>
<path d="M23.1645 25.4923C22.938 25.4298 23.36 25.4375 23.1645 25.4923V25.4923Z" fill="white"/>
<path d="M23.1632 25.4923C22.9367 25.4219 22.727 25.3751 22.5316 25.297C20.4848 24.4454 18.5942 23.3517 17.102 21.6719C16.2504 20.7189 15.5863 19.6329 15.0239 18.4923C14.7583 17.9533 14.5316 17.3907 14.3051 16.8282C14.0942 16.3205 14.4067 15.7891 14.727 15.4063C15.0316 15.047 15.4223 14.7735 15.8442 14.5626C16.1723 14.4063 16.5004 14.4923 16.7426 14.7735C17.266 15.3829 17.7426 16.0157 18.1332 16.7189C18.3754 17.1485 18.3051 17.6798 17.8754 17.9689C17.7739 18.0391 17.6723 18.1251 17.5786 18.2033C17.4926 18.2735 17.4144 18.3438 17.352 18.4375C17.2426 18.6095 17.2426 18.8205 17.3051 19.0079C17.8363 20.4766 18.7348 21.6173 20.2114 22.2266C20.4458 22.3282 20.6879 22.4375 20.9535 22.4063C21.4067 22.3517 21.5551 21.8517 21.8754 21.5938C22.1879 21.3361 22.5863 21.3361 22.9223 21.547C23.2582 21.7579 23.5863 21.9845 23.9067 22.2189C24.227 22.4454 24.5395 22.6642 24.8363 22.9219C25.1176 23.1719 25.2192 23.4923 25.0551 23.8361C24.766 24.4533 24.3442 24.9689 23.7348 25.297C23.563 25.4063 23.3586 25.4375 23.1632 25.4923C23.3587 25.4375 22.9367 25.4298 23.1632 25.4923Z" fill="white"/>
<path d="M20.0074 13.8594C22.6872 13.9375 24.8904 15.711 25.359 18.3672C25.4372 18.8203 25.4685 19.2812 25.5074 19.7422C25.5232 19.9375 25.4137 20.1172 25.2028 20.1172C24.9841 20.1172 24.8904 19.9375 24.8746 19.75C24.8434 19.3672 24.8278 18.9844 24.7732 18.6094C24.4918 16.6094 22.906 14.961 20.9137 14.6094C20.6169 14.5547 20.3122 14.5391 20.0074 14.5079C19.8122 14.4844 19.5622 14.4766 19.5232 14.2344C19.4841 14.0312 19.656 13.8751 19.8434 13.8672C19.8981 13.8594 19.9528 13.8594 20.0074 13.8594C19.9528 13.8594 22.6872 13.9375 20.0074 13.8594Z" fill="white"/>
<path d="M24.0778 19.141C24.0699 19.1722 24.0699 19.2503 24.0543 19.3284C23.984 19.594 23.5778 19.6331 23.484 19.3596C23.4528 19.2815 23.4528 19.1878 23.4528 19.1019C23.4528 18.5315 23.3278 17.9691 23.0387 17.4768C22.7418 16.9691 22.2966 16.5394 21.7652 16.2815C21.445 16.1254 21.1012 16.0315 20.7496 15.9691C20.5934 15.9456 20.445 15.93 20.2887 15.9066C20.1012 15.8831 19.9996 15.7659 20.0152 15.5784C20.0231 15.4066 20.148 15.2815 20.3356 15.2972C20.9527 15.3284 21.5466 15.4612 22.0934 15.7582C23.2027 16.344 23.8434 17.2738 24.0231 18.5159C24.0308 18.5706 24.0466 18.6254 24.0466 18.6878C24.0622 18.8206 24.0699 18.9612 24.0778 19.141C24.0699 18.9612 24.0778 19.1722 24.0778 19.141Z" fill="white"/>
<path d="M22.4156 19.078C22.189 19.0859 22.0718 18.9608 22.0485 18.7499C22.0328 18.6092 22.0172 18.4608 21.986 18.3201C21.9156 18.0468 21.775 17.7889 21.5406 17.6249C21.4313 17.5468 21.3062 17.4843 21.1813 17.4531C21.0172 17.4061 20.8453 17.4217 20.6813 17.3749C20.5016 17.328 20.4078 17.1873 20.4313 17.0233C20.4548 16.8749 20.6032 16.7499 20.7672 16.7655C21.8062 16.8436 22.5485 17.3749 22.6578 18.6015C22.6656 18.6873 22.6734 18.7812 22.6578 18.8592C22.6188 18.9999 22.5172 19.0701 22.4156 19.078C22.5172 19.0701 22.189 19.078 22.4156 19.078Z" fill="white"/>
<path d="M20.0078 13.8594C20.1639 13.8672 22.5781 13.9375 20.0078 13.8594V13.8594Z" fill="white"/>
<path d="M24.0777 19.1406C24.0698 18.9609 24.0777 19.1718 24.0777 19.1406V19.1406Z" fill="white"/>
</svg>
