<svg width="40" height="40" viewBox="0 0 40 40" fill="none" xmlns="http://www.w3.org/2000/svg">
<path d="M20 40C31.0457 40 40 31.0457 40 20C40 8.95431 31.0457 0 20 0C8.95431 0 0 8.95431 0 20C0 31.0457 8.95431 40 20 40Z" fill="#40C351"/>
<path d="M16.5355 13.3841C16.8024 13.3898 16.9785 13.6271 17.0807 13.8361C17.4214 14.5706 17.694 15.3276 18.0177 16.0677C18.0859 16.2203 18.1313 16.3898 18.0745 16.5536C17.9041 17.0338 17.5066 17.3785 17.1886 17.7627C17.075 17.8926 17.0864 18.079 17.1772 18.2146C18.0504 19.9021 19.5463 21.1878 21.3513 21.8022C21.5217 21.8757 21.7261 21.8587 21.8454 21.7118C22.1859 21.3338 22.5081 20.9397 22.8108 20.531C23.072 20.192 23.2992 20.2881 23.6399 20.4293L25.8206 21.4745C25.991 21.548 26.1614 21.6723 26.1443 21.87C26.2579 23.339 24.9347 24.4802 23.5491 24.5254C19.9713 24.2655 17.5293 22.2881 15.7688 20.0056C15.1896 19.2033 14.5763 18.3954 14.2582 17.4406C13.9573 16.6045 13.9459 15.6497 14.3037 14.8248C14.8545 13.7231 15.3372 13.2994 16.5525 13.3672L16.5355 13.3841ZM13.1849 9.16941C15.8086 7.30499 19.2046 6.59313 22.3849 7.2259C24.4444 7.63132 26.3589 8.57295 27.9332 9.95472C30.1613 11.8979 31.5825 14.5967 31.9199 17.5254C32.1458 19.4589 31.8923 21.418 31.1816 23.2316C30.3411 25.3785 28.8532 27.2655 26.9678 28.5989C25.151 29.8885 23.0056 30.6424 20.7777 30.774C18.5479 30.9105 16.3243 30.4211 14.3605 29.3616L8 31L9.6753 24.8983C9.70937 24.8248 9.65826 24.7627 9.61851 24.7062C8.36169 22.4743 7.86369 19.898 8.19876 17.3615C8.41995 15.7306 8.97505 14.1621 9.82974 12.753C10.6844 11.344 11.8206 10.1243 13.1679 9.16941H13.1849ZM15.9903 9.88128C14.0879 10.7287 12.4694 12.1864 11.4358 13.9886C10.618 15.4011 10.1637 17.0112 10.1296 18.6384C10.0728 20.6271 10.6407 22.6214 11.7368 24.2881C11.7936 24.3898 11.8958 24.4972 11.8504 24.6271L10.8849 28.1525C12.0945 27.8474 13.3042 27.5198 14.5195 27.2147C14.6728 27.1582 14.8034 27.2825 14.9284 27.3503C17.0229 28.6076 19.51 29.0521 21.9135 28.5989C23.3186 28.3321 24.6481 27.7633 25.8093 26.9322C27.6237 25.6358 28.9493 23.772 29.5745 21.6384C30.1369 19.6926 30.0854 17.6219 29.4268 15.7062C28.8445 14.0234 27.8164 12.5283 26.451 11.3785C25.0145 10.1641 23.2588 9.38388 21.391 9.12986C19.5738 8.88692 17.677 9.14681 15.996 9.90387L15.9903 9.88128Z" fill="#FCFCFC"/>
</svg>
